<?xml version="1.0" standalone="no"?>
<!DOCTYPE svg PUBLIC "-//W3C//DTD SVG 20010904//EN"
 "http://www.w3.org/TR/2001/REC-SVG-20010904/DTD/svg10.dtd">
<svg version="1.0" xmlns="http://www.w3.org/2000/svg"
 width="520.000000pt" height="520.000000pt" viewBox="0 0 520.000000 520.000000"
 preserveAspectRatio="xMidYMid meet">
<metadata>
Created by potrace 1.11, written by Peter Selinger 2001-2013
</metadata>
<g transform="translate(0.000000,520.000000) scale(0.100000,-0.100000)"
fill="#000000" stroke="none">
<path d="M268 4963 c-16 -4 -18 -19 -20 -106 -5 -196 -2 -221 42 -321 115
-262 333 -518 830 -975 528 -485 721 -696 819 -895 43 -87 53 -183 26 -239
-58 -123 -297 -240 -636 -313 -190 -40 -577 -45 -724 -8 -62 15 179 -153 278
-193 124 -52 193 -65 357 -70 180 -6 310 12 520 72 69 19 135 37 147 40 12 3
34 10 48 15 51 19 54 15 38 -47 -10 -40 -17 -156 -22 -373 -7 -244 -12 -328
-25 -374 -50 -179 -155 -265 -366 -302 -82 -14 -143 -15 -456 -9 -198 3 -377
3 -398 0 l-38 -8 59 -59 c159 -163 357 -252 588 -264 104 -6 258 12 345 40
l45 14 -50 -5 c-48 -4 -43 -1 90 62 140 66 248 108 316 120 21 4 70 33 122 72
91 68 237 215 237 238 0 8 6 18 14 22 21 12 98 136 153 248 28 55 92 204 143
330 221 551 339 730 593 903 56 38 203 127 327 197 296 168 382 228 519 360
141 137 231 249 471 585 104 146 225 310 269 365 44 55 78 101 77 103 -2 1
-26 -6 -53 -16 -98 -37 -176 -102 -428 -358 -165 -167 -272 -266 -314 -293
-114 -73 -255 -117 -621 -196 -108 -23 -230 -57 -280 -79 -13 -5 -19 16 -34
141 -21 171 -73 437 -117 603 -44 164 -129 422 -144 440 -19 22 -58 123 -43
114 7 -5 9 -2 6 7 -3 8 -27 70 -54 139 l-49 125 -3 -75 c-2 -41 7 -151 19
-245 44 -342 17 -552 -112 -881 -119 -304 -222 -464 -301 -464 -50 0 -158 57
-253 133 -132 106 -345 334 -610 652 -371 444 -514 595 -735 776 -183 150
-291 217 -397 244 -53 14 -176 19 -215 8z m2627 -333 c3 -5 1 -10 -4 -10 -6 0
-11 5 -11 10 0 6 2 10 4 10 3 0 8 -4 11 -10z m30 -190 c3 -5 1 -10 -4 -10 -6
0 -11 5 -11 10 0 6 2 10 4 10 3 0 8 -4 11 -10z m-2525 -40 c0 -5 -2 -10 -4
-10 -3 0 -8 5 -11 10 -3 6 -1 10 4 10 6 0 11 -4 11 -10z m55 -80 c3 -5 1 -10
-4 -10 -6 0 -11 5 -11 10 0 6 2 10 4 10 3 0 8 -4 11 -10z m1547 -1852 c-10
-22 -11 -21 -11 12 -1 26 2 31 11 22 8 -8 8 -17 0 -34z"/>
<path d="M3340 2430 c-71 -13 -135 -60 -196 -142 -28 -38 -44 -71 -44 -89 0
-30 -15 -47 -23 -27 -9 25 -147 -292 -147 -338 0 -17 -4 -23 -12 -18 -8 5 -9
2 -5 -9 3 -10 3 -17 -1 -17 -8 0 -52 -92 -52 -108 0 -4 -30 -66 -66 -137 -64
-126 -66 -131 -62 -195 2 -47 10 -74 26 -97 12 -17 22 -38 22 -47 0 -9 4 -16
10 -16 5 0 29 -13 52 -30 106 -74 247 -51 399 66 140 107 278 313 296 439 l6
44 56 6 c189 21 266 89 266 232 -1 63 -6 81 -42 155 -101 204 -327 357 -483
328z"/>
<path d="M3630 1483 c-14 -9 -56 -37 -94 -61 -149 -97 -144 -188 18 -370 79
-90 160 -204 288 -405 193 -305 251 -388 287 -413 35 -24 138 -60 147 -51 2 2
-3 20 -11 40 -8 20 -15 39 -15 42 0 3 18 12 40 21 45 18 45 19 25 68 -18 42
-17 42 34 16 21 -10 59 -24 85 -31 39 -10 50 -9 71 5 22 14 25 24 25 70 l0 53
52 9 c28 5 53 14 55 21 9 26 -86 120 -198 196 -137 93 -266 206 -398 347 -106
114 -283 324 -344 408 -21 28 -39 52 -40 51 -1 0 -13 -7 -27 -16z"/>
</g>
</svg>
