<?xml version="1.0" standalone="no"?>
<!DOCTYPE svg PUBLIC "-//W3C//DTD SVG 20010904//EN"
 "http://www.w3.org/TR/2001/REC-SVG-20010904/DTD/svg10.dtd">
<svg version="1.0" xmlns="http://www.w3.org/2000/svg"
 width="500.000000pt" height="500.000000pt" viewBox="0 0 500.000000 500.000000"
 preserveAspectRatio="xMidYMid meet">
<metadata>
Created by potrace 1.11, written by Peter Selinger 2001-2013
</metadata>
<g transform="translate(0.000000,500.000000) scale(0.100000,-0.100000)"
fill="#000000" stroke="none">
<path d="M1050 2500 l0 -1410 1415 0 1415 0 0 1410 0 1410 -1415 0 -1415 0 0
-1410z m1705 901 c354 -92 548 -377 505 -744 -14 -123 -47 -229 -101 -320 -46
-77 -143 -186 -197 -219 l-37 -23 200 -5 200 -5 3 -142 3 -143 -356 0 -355 0
0 154 0 154 45 26 c159 94 246 285 246 543 -1 178 -32 274 -117 360 -147 147
-440 146 -588 -3 -83 -82 -116 -186 -116 -360 0 -249 75 -425 225 -525 l64
-44 1 -152 0 -153 -350 0 -350 0 0 145 0 145 196 0 196 0 -49 38 c-203 161
-311 433 -282 713 16 158 71 273 183 384 104 103 242 168 411 195 98 15 328 5
420 -19z"/>
</g>
</svg>
