<?xml version="1.0" standalone="no"?>
<!DOCTYPE svg PUBLIC "-//W3C//DTD SVG 20010904//EN"
 "http://www.w3.org/TR/2001/REC-SVG-20010904/DTD/svg10.dtd">
<svg version="1.0" xmlns="http://www.w3.org/2000/svg"
 width="1080.000000pt" height="1080.000000pt" viewBox="0 0 1080.000000 1080.000000"
 preserveAspectRatio="xMidYMid meet">
<metadata>
Created by potrace 1.11, written by Peter Selinger 2001-2013
</metadata>
<g transform="translate(0.000000,1080.000000) scale(0.100000,-0.100000)"
fill="#000000" stroke="none">
<path d="M7755 9632 c-175 -52 -366 -170 -620 -381 -150 -125 -481 -464 -605
-620 l-115 -145 -3 44 c-5 62 3 81 51 118 66 53 243 230 310 311 l60 73 -44
-27 c-110 -69 -233 -176 -311 -273 -61 -74 -85 -84 -53 -22 33 64 -7 16 -87
-103 -74 -111 -189 -247 -209 -247 -9 0 9 59 24 78 5 7 7 16 3 20 -11 10 -239
-227 -314 -326 -155 -203 -251 -394 -307 -612 -44 -168 -54 -259 -50 -465 4
-202 21 -312 79 -504 35 -113 34 -118 -8 -92 -18 12 -36 21 -39 21 -8 0 23
-90 42 -120 20 -32 40 -48 72 -61 18 -7 46 -46 98 -137 81 -141 212 -341 240
-366 18 -16 22 -11 91 104 39 66 73 120 75 120 2 0 19 -28 38 -62 42 -74 61
-96 122 -138 l46 -31 55 50 c35 32 71 55 97 62 586 155 1049 469 1349 914 236
349 367 726 445 1275 12 89 16 213 18 545 3 548 -9 659 -91 815 -72 138 -159
193 -309 197 -63 2 -108 -3 -150 -15z m-1566 -1313 c-17 -41 -35 -85 -41 -99
-10 -24 -11 -22 -23 25 l-12 50 51 52 c27 29 51 51 53 49 2 -1 -11 -36 -28
-77z"/>
<path d="M1859 8315 c-6 -6 -78 -14 -179 -20 -138 -9 -224 -29 -316 -75 -305
-150 -286 -465 57 -926 182 -243 495 -561 772 -782 59 -47 107 -89 107 -94 0
-4 -23 -8 -50 -8 -42 0 -54 4 -73 27 -82 99 -182 201 -288 292 -118 103 -116
102 -89 56 53 -90 180 -234 285 -322 27 -23 47 -44 44 -47 -2 -3 -24 4 -49 15
-24 11 -42 18 -40 15 17 -16 136 -99 190 -131 62 -38 210 -169 210 -186 0 -5
-23 0 -52 11 -28 11 -53 18 -55 16 -7 -6 246 -244 327 -308 466 -363 1008
-459 1589 -283 113 34 118 33 91 -11 -12 -19 -21 -37 -19 -39 2 -2 33 7 69 19
51 18 70 30 87 57 12 19 29 44 38 56 8 12 61 48 118 79 91 51 316 196 375 242
22 17 22 17 -99 87 -67 39 -121 75 -119 80 1 6 27 24 57 41 68 38 116 82 142
131 l19 38 -49 53 c-31 34 -52 68 -59 95 -41 163 -141 423 -221 573 -52 99
-193 313 -251 379 -81 95 -193 207 -268 270 -65 54 -226 167 -286 202 -398
225 -878 359 -1394 388 -126 7 -616 15 -621 10z m646 -2135 c28 -12 61 -27 75
-32 l25 -11 -25 -7 c-60 -19 -87 -12 -129 33 -62 65 -58 66 54 17z"/>
<path d="M6885 5308 c-99 -13 -214 -38 -324 -69 -57 -17 -105 -28 -108 -26 -2
3 3 19 11 36 9 16 16 32 16 35 0 3 -26 -4 -59 -15 -58 -20 -121 -69 -121 -95
0 -16 -31 -46 -68 -65 -117 -60 -260 -150 -404 -254 l-57 -41 108 -63 c161
-92 155 -82 80 -124 -76 -42 -102 -65 -140 -125 l-28 -44 36 -39 c54 -58 57
-64 102 -209 127 -402 293 -699 532 -954 346 -368 828 -607 1430 -710 79 -14
167 -28 194 -31 28 -3 84 -10 125 -15 78 -9 889 -6 950 3 19 4 55 9 80 12 90
12 215 63 289 119 92 69 139 204 117 339 -52 324 -470 856 -1030 1308 -64 51
-116 97 -116 101 0 4 24 8 53 8 50 -1 53 -3 89 -48 73 -91 223 -238 362 -351
18 -15 18 -15 6 9 -38 75 -181 239 -299 343 -23 21 -41 41 -38 43 3 3 23 -4
46 -16 23 -11 41 -18 41 -16 0 2 -65 47 -144 100 -126 85 -267 208 -254 222 3
2 26 -5 52 -17 26 -11 49 -19 52 -17 5 6 -207 213 -286 279 -202 169 -496 313
-741 363 -172 35 -400 45 -554 24z m1466 -675 c27 -25 47 -48 44 -51 -5 -5
-151 55 -173 71 -18 14 3 27 46 27 25 0 44 -10 83 -47z"/>
<path d="M4793 4987 c-12 -17 -44 -71 -73 -119 -28 -49 -52 -88 -55 -88 -2 0
-19 28 -38 63 -42 73 -61 95 -122 137 l-46 31 -55 -50 c-35 -32 -70 -54 -97
-61 -238 -62 -567 -205 -755 -329 -609 -404 -947 -1034 -1049 -1956 -10 -91
-10 -832 0 -955 11 -128 30 -200 77 -295 46 -93 60 -110 118 -153 198 -143
494 -46 927 302 138 110 489 464 615 620 58 71 115 141 127 155 l22 26 1 -57
c0 -51 -3 -59 -32 -85 -170 -151 -386 -378 -373 -391 2 -3 40 22 85 53 89 65
217 184 276 259 41 52 56 49 28 -6 -34 -65 11 -11 99 120 104 156 247 299 194
195 -41 -79 -28 -77 63 12 250 245 419 501 508 770 111 332 110 710 -3 1061
-13 44 -25 87 -25 97 0 18 2 17 34 -2 18 -12 36 -21 39 -21 4 0 -4 28 -16 61
-21 60 -68 119 -94 119 -16 0 -48 35 -68 74 -51 101 -156 272 -226 366 -32 44
-60 80 -61 80 -2 0 -13 -15 -25 -33z m-154 -2533 c-24 -25 -45 -41 -47 -36 -3
9 19 68 54 147 l18 40 9 -53 10 -53 -44 -45z"/>
</g>
</svg>
